<?xml version="1.0" encoding="UTF-8"?>
<svg version="1.1" xmlns="http://www.w3.org/2000/svg" width="500" height="500">
<path d="M0 0 C2.9215309 1.94768726 4.73176007 3.56617986 6.58203125 6.55859375 C10.08046238 10.09093536 13.2620299 9.91112749 18.0625 10.3125 C33.2808672 12.11766703 47.05430528 16.9044717 57 29 C57.80050781 29.7321875 58.60101563 30.464375 59.42578125 31.21875 C62.69783991 34.7539636 64.65751423 38.53479947 66.8125 42.8125 C67.21919922 43.60076172 67.62589844 44.38902344 68.04492188 45.20117188 C69.03843902 47.12976398 70.02041028 49.06429656 71 51 C74.99910774 49.66696409 75.87727103 47.71891272 77.9921875 44.2109375 C79.4876655 40.93016018 79.37011842 38.55313685 79 35 C79.66 35 80.32 35 81 35 C81 34.34 81 33.68 81 33 C81.66 33 82.32 33 83 33 C83 33.66 83 34.32 83 35 C84.32 35 85.64 35 87 35 C85.44926968 42.91784655 79.98036482 49.83513947 74 55 C73.34 55 72.68 55 72 55 C75.1142075 64.34512415 75.1142075 64.34512415 81 72 C83.49200487 73.01850785 85.93388994 73.68663661 88.55078125 74.3125 C91.95133362 75.26704102 94.2109052 76.87148028 97 79 C96.51987448 83.56500299 96.51987448 83.56500299 94.27734375 85.44140625 C88.28723158 88.31146 82.36455669 90.11828752 75.88647461 91.48071289 C72.32333401 92.26269222 69.33697935 93.25442334 66.1171875 94.98828125 C61.64350599 97.3381871 57.20136096 98.26454016 52.25 99.125 C51.32372803 99.28967773 50.39745605 99.45435547 49.44311523 99.62402344 C46.63209517 100.10723853 43.81818457 100.56065745 41 101 C39.856521 101.18224121 39.856521 101.18224121 38.68994141 101.36816406 C9.11340649 105.82626944 -32.90352996 107.8570267 -60 94 C-62.276506 93.45332164 -64.57051911 92.97566417 -66.875 92.5625 C-73.35207929 91.2616067 -79.19550061 89.80449939 -84 85 C-84.5 82.125 -84.5 82.125 -84 79 C-79.27036321 74.52601925 -73.20506106 73.45741648 -67 72 C-66.92652344 71.09507812 -66.92652344 71.09507812 -66.8515625 70.171875 C-66.77679688 69.37265625 -66.70203125 68.5734375 -66.625 67.75 C-66.55539063 66.96109375 -66.48578125 66.1721875 -66.4140625 65.359375 C-66 63 -66 63 -64.9609375 60.953125 C-63.70569214 58.76459951 -63.70569214 58.76459951 -64 55 C-65.41719019 53.88649342 -66.83732608 52.77649444 -68.2734375 51.6875 C-71.84725647 48.19453666 -73.80582645 43.43460979 -76 39 C-76.58007812 37.84177734 -76.58007812 37.84177734 -77.171875 36.66015625 C-77.44515625 36.11230469 -77.7184375 35.56445312 -78 35 C-76.35 35 -74.7 35 -73 35 C-73 34.34 -73 33.68 -73 33 C-72.34 33 -71.68 33 -71 33 C-71 33.66 -71 34.32 -71 35 C-70.34 35 -69.68 35 -69 35 C-69.433125 36.2065625 -69.433125 36.2065625 -69.875 37.4375 C-70.0609308 42.7365277 -67.33484645 46.02994471 -64 50 C-63.01 50.66 -62.02 51.32 -61 52 C-60.88527344 51.27296875 -60.77054688 50.5459375 -60.65234375 49.796875 C-57.58919866 36.6638697 -45.01528339 28.19979786 -34.51953125 21.078125 C-28.74223563 17.49505118 -22.37200471 15.29181773 -16 13 C-14.33044003 12.34061262 -12.66250888 11.67696858 -11 11 C-10.97421875 10.38511719 -10.9484375 9.77023438 -10.921875 9.13671875 C-10.46186743 2.58161083 -10.46186743 2.58161083 -8.3125 -0.125 C-5.08011596 -1.34806423 -3.29325581 -1.00813953 0 0 Z M-4 4 C-0.82460444 7.42578949 -0.82460444 7.42578949 3 10 C1.84826645 7.53199953 0.95216435 5.95216435 -1 4 C-1.99 4 -2.98 4 -4 4 Z M26 44 C25.67 44.66 25.34 45.32 25 46 C25.66 46 26.32 46 27 46 C26.67 45.34 26.34 44.68 26 44 Z M-13 44 C-13.99 44.495 -13.99 44.495 -15 45 C-15 45.66 -15 46.32 -15 47 C-14.01 46.67 -13.02 46.34 -12 46 C-12.33 45.34 -12.66 44.68 -13 44 Z M20 47 C20 50.63 20 54.26 20 58 C24.53815546 60.26907773 26.17169942 60.00210012 31 59 C32.20561184 58.01732141 32.20561184 58.01732141 32.09765625 56.15234375 C32.08605469 55.42144531 32.07445312 54.69054687 32.0625 53.9375 C32.041875 52.638125 32.02125 51.33875 32 50 C31.46375 50.66 30.9275 51.32 30.375 52 C28 54 28 54 24.75 54.25 C23.8425 54.1675 22.935 54.085 22 54 C21.67 51.69 21.34 49.38 21 47 C20.67 47 20.34 47 20 47 Z M-21 49 C-21 51.97 -21 54.94 -21 58 C-16.9088444 59.2834998 -13.3091525 60.38021934 -9 60 C-7.74050951 58.96593327 -7.74050951 58.96593327 -7.90234375 56.71484375 C-7.91394531 55.79832031 -7.92554688 54.88179687 -7.9375 53.9375 C-7.95103516 52.55884766 -7.95103516 52.55884766 -7.96484375 51.15234375 C-7.97644531 50.44207031 -7.98804688 49.73179687 -8 49 C-10.18490007 51.67642489 -10.18490007 51.67642489 -10 54 C-12.31 54 -14.62 54 -17 54 C-17.66 52.35 -18.32 50.7 -19 49 C-19.66 49 -20.32 49 -21 49 Z " fill="#EFE5C9" transform="translate(244,199)"/>
<path d="M0 0 C0.62874023 0.4232959 1.25748047 0.8465918 1.90527344 1.28271484 C11.8238161 7.86343443 21.56616327 9.74216544 33.25 10.9375 C46.25487196 12.27149286 58.73121989 13.5876597 67.8125 23.9375 C72.9043334 30.56332878 75.70822964 38.36690819 78.84936523 46.02929688 C83.72671046 57.7675576 90.37744624 65.43082034 100.25 73.3125 C108.7564877 80.20649416 116.59382942 87.5112634 118.22265625 98.7734375 C118.60200576 106.80786567 117.04162084 114.13144455 115.3125 121.9375 C112.09274694 136.63965098 112.62032843 147.79650401 116.01293945 162.38745117 C118.27713251 172.38138668 120.33424886 183.34551003 115.26171875 192.83203125 C109.23873721 201.58240066 101.102 208.91584387 92.8359375 215.515625 C84.95180185 221.83682627 80.98175844 230.20387163 77.3125 239.4375 C73.89888452 248.02780708 70.08858304 256.64353995 62.9375 262.8125 C62.34195313 263.34617187 61.74640625 263.87984375 61.1328125 264.4296875 C53.81269091 269.18653419 46.05501536 269.67739642 37.5625 270.4375 C23.04063623 271.75471273 12.03326621 274.15523157 -0.4375 281.9375 C-12.32029979 289.24078249 -22.40480065 294.71709821 -36.8203125 291.31640625 C-44.98653111 288.28439439 -52.523089 283.30184946 -59.98583984 278.86938477 C-71.18398582 272.31611426 -82.63646041 271.19273446 -95.36621094 270.15209961 C-105.37839448 269.24288277 -113.94180536 267.22651718 -121.1875 259.9375 C-123.20703125 257.08984375 -123.20703125 257.08984375 -125 253.875 C-125.33128906 253.28428711 -125.66257813 252.69357422 -126.00390625 252.08496094 C-128.90784341 246.7673969 -131.28087842 241.24259137 -133.6875 235.6875 C-139.0214522 223.53951143 -145.92805829 215.85947221 -156.05859375 207.53515625 C-163.98602262 201.00261092 -171.39517635 193.95128776 -172.4609375 183.171875 C-172.70340133 174.85350058 -171.59800251 167.47814306 -169.6875 159.375 C-166.40180529 145.12742927 -166.93140435 134.32512302 -170.38793945 120.20019531 C-172.76960747 110.1533191 -174.82043735 98.51323134 -169.62109375 88.99609375 C-164.2542551 81.28948894 -157.46779698 75.21160725 -150.23681641 69.3112793 C-143.47439501 63.73232971 -138.81630204 58.04792758 -135.3125 50 C-134.63294002 48.50585938 -133.95191052 47.01238639 -133.26953125 45.51953125 C-132.92744629 44.76365723 -132.58536133 44.0077832 -132.23291016 43.22900391 C-130.54176697 39.52207492 -128.78731169 35.84888193 -127 32.1875 C-126.69143066 31.53273682 -126.38286133 30.87797363 -126.06494141 30.20336914 C-124.00001068 25.99627819 -121.67524523 23.04947905 -118.1875 19.9375 C-117.3934375 19.21820313 -116.599375 18.49890625 -115.78125 17.7578125 C-107.89912734 12.22608184 -97.01474547 11.70861145 -87.6875 11 C-72.94101538 9.80401799 -62.07470758 5.30662771 -49.8046875 -2.75 C-32.47052925 -14.05997546 -16.81534719 -10.8246313 0 0 Z M-51.14501953 2.0222168 C-65.33008736 10.47488618 -76.93814378 13.37449393 -93.36914062 14.72460938 C-103.37557083 15.6290478 -111.95098407 17.64706071 -119.1875 24.9375 C-121.34642077 27.87879283 -121.34642077 27.87879283 -123.125 31.1875 C-123.46144531 31.78667236 -123.79789063 32.38584473 -124.14453125 33.00317383 C-126.72216798 37.73388824 -128.73120848 42.61224731 -130.6875 47.625 C-136.06794739 61.15814209 -144.5169346 69.31489861 -155.48291016 78.49951172 C-162.65786898 84.55229136 -168.11819367 90.0226524 -169.59765625 99.58984375 C-169.98410202 107.13049077 -168.38987616 113.94799895 -166.6875 121.25 C-163.18645588 136.50481161 -163.84638831 148.44753381 -167.38793945 163.62719727 C-170.60436645 177.60952783 -170.60436645 177.60952783 -166.6171875 191 C-160.9215306 198.71870443 -154.13846476 204.97397963 -146.68041992 210.9440918 C-137.61479381 218.43778274 -132.93146987 227.98821016 -128.5 238.6875 C-124.68558558 248.28178246 -124.68558558 248.28178246 -119.1875 256.9375 C-118.5275 256.9375 -117.8675 256.9375 -117.1875 256.9375 C-116.92839844 257.55367188 -116.66929687 258.16984375 -116.40234375 258.8046875 C-114.01687785 262.99267586 -109.3951115 264.32955191 -104.91796875 265.5625 C-99.62453873 266.62952211 -94.30872431 267.11609683 -88.93701172 267.58007812 C-71.71782872 269.10497694 -59.19599923 274.37315527 -44.875 283.75 C-37.88916688 288.14024756 -30.41513811 290.170425 -22.1875 288.9375 C-15.31946954 287.01159828 -9.31664399 283.47726074 -3.23193359 279.8527832 C10.54232881 271.6513657 22.27034732 268.53146868 38.26196289 267.15039062 C48.24362682 266.2074068 57.91381465 264.33340917 64.91796875 256.64453125 C68.68938697 251.25568007 71.17301006 245.19602792 73.8125 239.1953125 C80.18233578 224.81341765 86.73558884 215.0053634 99.19921875 205.05859375 C106.09156208 199.46435993 112.94873341 192.94804074 114.8125 183.9375 C115.40896915 176.19674308 114.21034184 169.34284682 112.3125 161.875 C108.59887043 145.79899521 109.27215513 133.08601924 113.01074219 117.0715332 C115.3135307 107.13004222 116.80953319 98.61031107 111.546875 89.37109375 C106.77900187 82.68103754 100.59267755 77.49936948 94.1875 72.4375 C82.62778169 63.01786979 77.78395348 51.81494735 71.9140625 38.43017578 C67.5229441 28.49371326 63.52326286 21.99895154 53.37890625 17.37109375 C47.64465702 15.2927936 41.65873831 15.03083595 35.625 14.5 C21.43272724 13.05740745 10.68919983 10.42502541 -1.61328125 3.0390625 C-5.26492869 0.85797886 -9.00941882 -1.09770949 -12.8125 -3 C-14.50246094 -3.84884766 -14.50246094 -3.84884766 -16.2265625 -4.71484375 C-29.11381525 -10.58041394 -39.91226017 -4.67419235 -51.14501953 2.0222168 Z " fill="#E2A153" transform="translate(277.1875,109.0625)"/>
<path d="M0 0 C2.875 1.875 2.875 1.875 5 4 C5 4.66 5 5.32 5 6 C6.65 6 8.3 6 10 6 C10.33 6.66 10.66 7.32 11 8 C15.08375939 10.16597183 18.50204714 10.15607967 23.0625 10 C29.56440213 9.77794998 29.56440213 9.77794998 31.92626953 10.98193359 C34.25392799 12.12466208 35.87796082 12.30790551 38.45703125 12.4140625 C39.31546631 12.45289551 40.17390137 12.49172852 41.05834961 12.53173828 C41.96721924 12.56251465 42.87608887 12.59329102 43.8125 12.625 C45.21350952 12.68083252 45.21350952 12.68083252 46.64282227 12.73779297 C59.97255258 13.56875828 59.97255258 13.56875828 73.16015625 12.3671875 C76 12 76 12 77.62866211 12.95825195 C81.24042318 14.544928 84.90237279 14.30509313 88.78125 14.30078125 C89.63174927 14.30506638 90.48224854 14.3093515 91.35852051 14.31376648 C93.15388093 14.31950078 94.94926458 14.32001667 96.74462891 14.31567383 C99.49031151 14.31251116 102.23491908 14.33599291 104.98046875 14.36132812 C106.72656114 14.36360095 108.47265643 14.36430469 110.21875 14.36328125 C111.03863403 14.372491 111.85851807 14.38170074 112.70324707 14.39118958 C117.1549773 14.35506526 119.70433445 14.05303681 123 11 C125.62109375 10.69921875 125.62109375 10.69921875 128.4375 10.6875 C132.3591118 10.54547427 132.3591118 10.54547427 135.6171875 8.64453125 C136.01164063 8.10183594 136.40609375 7.55914062 136.8125 7 C139 4 139 4 142.3125 3.125 C143.6428125 3.063125 143.6428125 3.063125 145 3 C145.33 2.01 145.66 1.02 146 0 C152.63498399 0.35544557 156.63187218 2.13095043 162 6 C161.51987448 10.56500299 161.51987448 10.56500299 159.27734375 12.44140625 C153.28723158 15.31146 147.36455669 17.11828752 140.88647461 18.48071289 C137.32333401 19.26269222 134.33697935 20.25442334 131.1171875 21.98828125 C126.64350599 24.3381871 122.20136096 25.26454016 117.25 26.125 C116.32372803 26.28967773 115.39745605 26.45435547 114.44311523 26.62402344 C111.63209517 27.10723853 108.81818457 27.56065745 106 28 C105.23768066 28.12149414 104.47536133 28.24298828 103.68994141 28.36816406 C74.11340649 32.82626944 32.09647004 34.8570267 5 21 C2.723494 20.45332164 0.42948089 19.97566417 -1.875 19.5625 C-8.35207929 18.2616067 -14.19550061 16.80449939 -19 12 C-19.5 9.125 -19.5 9.125 -19 6 C-13.77124031 1.40889393 -6.94721311 -0.90615823 0 0 Z " fill="#EBA043" transform="translate(179,272)"/>
<path d="M0 0 C0.70125 0.7425 1.4025 1.485 2.125 2.25 C6.95261458 6.86771829 9.89678703 9.24118153 16.6875 9.1875 C17.61949219 9.13980469 18.55148438 9.09210938 19.51171875 9.04296875 C22 9 22 9 25 10 C24.505 8.515 24.505 8.515 24 7 C24.27571139 4.99124558 24.60235737 2.98821313 25 1 C26.32 1.66 27.64 2.32 29 3 C28.79375 3.598125 28.5875 4.19625 28.375 4.8125 C27.69328085 7.28450846 27.69328085 7.28450846 30 10 C28.68 10 27.36 10 26 10 C26 11.65 26 13.3 26 15 C25.34 15 24.68 15 24 15 C24.495 16.485 24.495 16.485 25 18 C29.15626368 19.00926479 33.04365094 19.10239579 37.3125 19.0625 C38.56675781 19.05347656 39.82101562 19.04445312 41.11328125 19.03515625 C42.06589844 19.02355469 43.01851563 19.01195312 44 19 C44.495 19.99 44.495 19.99 45 21 C44.04738281 20.98839844 43.09476562 20.97679687 42.11328125 20.96484375 C40.85902344 20.95582031 39.60476563 20.94679687 38.3125 20.9375 C37.07113281 20.92589844 35.82976562 20.91429687 34.55078125 20.90234375 C31.53764546 20.98521327 28.91724661 21.29160551 26 22 C26 23.65 26 25.3 26 27 C26.99 26.835 27.98 26.67 29 26.5 C33.02732942 25.91525483 36.93474623 25.92867976 41 26 C41 26.33 41 26.66 41 27 C39.02 27 37.04 27 35 27 C35 27.66 35 28.32 35 29 C36.32 29.33 37.64 29.66 39 30 C37.02 30.66 35.04 31.32 33 32 C32.34 36.29 31.68 40.58 31 45 C30.34 45 29.68 45 29 45 C29.185625 45.556875 29.37125 46.11375 29.5625 46.6875 C30.07551165 49.399133 29.6640724 51.34371039 29 54 C28.505 52.02 28.505 52.02 28 50 C27.34 52.31 26.68 54.62 26 57 C26.928125 57.185625 26.928125 57.185625 27.875 57.375 C30 58 30 58 32 60 C19.28378779 63.56427051 3.65773744 61.75326761 -7.7890625 55.46875 C-9.99378901 54.07629115 -12.06597945 52.74911419 -14 51 C-14 50.34 -14 49.68 -14 49 C-14.66 49 -15.32 49 -16 49 C-16.33 49.66 -16.66 50.32 -17 51 C-17.33 49.35 -17.66 47.7 -18 46 C-16.515 45.505 -16.515 45.505 -15 45 C-14.34 45.99 -13.68 46.98 -13 48 C-12.01 48 -11.02 48 -10 48 C-10 48.66 -10 49.32 -10 50 C-3.565 49.505 -3.565 49.505 3 49 C2.34 43.39 1.68 37.78 1 32 C-4.63345791 30.06349884 -10.20339563 28.37010649 -16 27 C-16 25.02 -16 23.04 -16 21 C-18.97 24.465 -18.97 24.465 -22 28 C-23.32 27.67 -24.64 27.34 -26 27 C-25.67 25.35 -25.34 23.7 -25 22 C-24.01 21.67 -23.02 21.34 -22 21 C-22.66 20.34 -23.32 19.68 -24 19 C-23.34 19 -22.68 19 -22 19 C-22 17.68 -22 16.36 -22 15 C-21.34 15 -20.68 15 -20 15 C-19.67 13.68 -19.34 12.36 -19 11 C-20.32 10.67 -21.64 10.34 -23 10 C-16.42130918 6.50718993 -10.08374553 3.44309093 -2.86328125 1.54296875 C-1.00243317 1.16278129 -1.00243317 1.16278129 0 0 Z " fill="#EEE3C7" transform="translate(233,210)"/>
<path d="M0 0 C0.70125 0.7425 1.4025 1.485 2.125 2.25 C6.95261458 6.86771829 9.89678703 9.24118153 16.6875 9.1875 C17.61949219 9.13980469 18.55148438 9.09210938 19.51171875 9.04296875 C22 9 22 9 25 10 C24.505 8.515 24.505 8.515 24 7 C24.27571139 4.99124558 24.60235737 2.98821313 25 1 C26.32 1.66 27.64 2.32 29 3 C28.79375 3.598125 28.5875 4.19625 28.375 4.8125 C27.69328085 7.28450846 27.69328085 7.28450846 30 10 C28.68 10 27.36 10 26 10 C26 11.65 26 13.3 26 15 C25.34 15 24.68 15 24 15 C24.495 16.485 24.495 16.485 25 18 C29.15626368 19.00926479 33.04365094 19.10239579 37.3125 19.0625 C38.56675781 19.05347656 39.82101562 19.04445312 41.11328125 19.03515625 C42.06589844 19.02355469 43.01851563 19.01195312 44 19 C44.495 19.99 44.495 19.99 45 21 C44.04738281 20.98839844 43.09476562 20.97679687 42.11328125 20.96484375 C40.85902344 20.95582031 39.60476563 20.94679687 38.3125 20.9375 C37.07113281 20.92589844 35.82976562 20.91429687 34.55078125 20.90234375 C31.53764546 20.98521327 28.91724661 21.29160551 26 22 C26 23.98 26 25.96 26 28 C25.34 28 24.68 28 24 28 C24 27.34 24 26.68 24 26 C22.68 26 21.36 26 20 26 C20 25.34 20 24.68 20 24 C16.7 24 13.4 24 10 24 C9.67 25.32 9.34 26.64 9 28 C8.34 28 7.68 28 7 28 C7 26.35 7 24.7 7 23 C1.78826988 19.70838098 -2.99164122 19.23656167 -9 20 C-11.23959489 20.94129904 -11.23959489 20.94129904 -13 22 C-13 22.99 -13 23.98 -13 25 C-6.07 25.495 -6.07 25.495 1 26 C1 26.33 1 26.66 1 27 C-0.65 27.33 -2.3 27.66 -4 28 C-3.01 28.66 -2.02 29.32 -1 30 C-6.13503344 29.35812082 -10.9943454 28.31727753 -16 27 C-16 25.02 -16 23.04 -16 21 C-18.97 24.465 -18.97 24.465 -22 28 C-23.32 27.67 -24.64 27.34 -26 27 C-25.67 25.35 -25.34 23.7 -25 22 C-24.01 21.67 -23.02 21.34 -22 21 C-22.66 20.34 -23.32 19.68 -24 19 C-23.34 19 -22.68 19 -22 19 C-22 17.68 -22 16.36 -22 15 C-21.34 15 -20.68 15 -20 15 C-19.67 13.68 -19.34 12.36 -19 11 C-20.32 10.67 -21.64 10.34 -23 10 C-16.42130918 6.50718993 -10.08374553 3.44309093 -2.86328125 1.54296875 C-1.00243317 1.16278129 -1.00243317 1.16278129 0 0 Z " fill="#F1E3C4" transform="translate(233,210)"/>
<path d="M0 0 C3.29656477 0.21977098 4.75851974 0.78455761 7.24609375 3.00390625 C9.51668097 5.65494837 11.78304592 8.3038098 14 11 C14.93005859 12.12148437 14.93005859 12.12148437 15.87890625 13.265625 C21.22158025 20.01155554 21.22158025 20.01155554 21 24 C18.89275684 26.70006098 17.72057463 27.87694963 14.30078125 28.4609375 C7.92968988 28.27771657 2.16525748 27.64406866 -4 26 C-3.41089844 26.73605469 -2.82179687 27.47210938 -2.21484375 28.23046875 C-1.46332031 29.20628906 -0.71179688 30.18210938 0.0625 31.1875 C0.81660156 32.15042969 1.57070312 33.11335938 2.34765625 34.10546875 C4 37 4 37 3.74609375 39.86328125 C3.49988281 40.56839844 3.25367188 41.27351563 3 42 C-5.12852443 39.28572998 -13.06759994 30.58721893 -17 23 C-17.27734375 20.390625 -17.27734375 20.390625 -17 18 C-15 16 -15 16 -12.93359375 15.953125 C-7.86789737 16.55561784 -2.95680388 17.34671193 1.9921875 18.59765625 C4.31238343 19.13098865 4.31238343 19.13098865 8 19 C7.44570312 18.32453125 6.89140625 17.6490625 6.3203125 16.953125 C5.59585938 16.06109375 4.87140625 15.1690625 4.125 14.25 C3.40570313 13.36828125 2.68640625 12.4865625 1.9453125 11.578125 C0.30493185 9.40412655 -0.9933785 7.51927435 -2 5 C-1.5 1.5 -1.5 1.5 0 0 Z " fill="#301E1A" transform="translate(169,160)"/>
<path d="M0 0 C1.65 0.33 3.3 0.66 5 1 C6.09315246 5.5838914 6.32282625 10.12511007 6.5625 14.8125 C6.60568359 15.60076172 6.64886719 16.38902344 6.69335938 17.20117188 C6.79878321 19.13394215 6.89983094 21.06695026 7 23 C7.86882812 22.36191406 8.73765625 21.72382813 9.6328125 21.06640625 C10.79646725 20.23120244 11.96055279 19.3965986 13.125 18.5625 C13.69476563 18.14162109 14.26453125 17.72074219 14.8515625 17.28710938 C18.50048087 14.69554803 21.38736945 13.16616104 26 13 C28.25 14.875 28.25 14.875 30 17 C30.66 17.33 31.32 17.66 32 18 C32 19.65 32 21.3 32 23 C30.35 23.33 28.7 23.66 27 24 C26.34 23.01 25.68 22.02 25 21 C24.48091064 21.37809814 23.96182129 21.75619629 23.42700195 22.14575195 C21.05705238 23.87014471 18.6848026 25.59134599 16.3125 27.3125 C15.49587891 27.90740234 14.67925781 28.50230469 13.83789062 29.11523438 C2.8510372 37.07736702 2.8510372 37.07736702 -0.75 36.75 C-3 36 -3 36 -4 35 C-4.62430347 27.49383972 -3.82769088 19.91292055 -3.125 12.4375 C-3.04660889 11.55666748 -2.96821777 10.67583496 -2.88745117 9.76831055 C-2.80342041 8.935979 -2.71938965 8.10364746 -2.6328125 7.24609375 C-2.55949707 6.50029053 -2.48618164 5.7544873 -2.41064453 4.98608398 C-2 3 -2 3 0 0 Z " fill="#301E1A" transform="translate(167,304)"/>
<path d="M0 0 C3.01768188 2.83830918 3.93385532 4.39874488 4.390625 8.55078125 C4.32101562 10.41283203 4.32101562 10.41283203 4.25 12.3125 C4.21390625 13.56675781 4.1778125 14.82101562 4.140625 16.11328125 C4.07101562 17.54220703 4.07101562 17.54220703 4 19 C4.99 18.34 5.98 17.68 7 17 C9.5625 16.75 9.5625 16.75 12 17 C14 19 14 19 14.41796875 21.890625 C14 25 14 25 11.98828125 27.046875 C11.10527344 27.60890625 10.22226562 28.1709375 9.3125 28.75 C8.44238281 29.32234375 7.57226562 29.8946875 6.67578125 30.484375 C0.1891516 34.15855355 0.1891516 34.15855355 -3.8125 33.625 C-4.534375 33.41875 -5.25625 33.2125 -6 33 C-8.377963 27.5571069 -7.91603594 23.32591419 -7.125 17.625 C-7.02058594 16.79355469 -6.91617187 15.96210938 -6.80859375 15.10546875 C-6.5510785 13.0687572 -6.27718721 11.03412765 -6 9 C-6.76699219 9.65484375 -7.53398437 10.3096875 -8.32421875 10.984375 C-11.26869026 13.20240025 -12.42438777 13.4086414 -16 13 C-16.8125 10.9375 -16.8125 10.9375 -17 8 C-15.32036081 4.62624197 -13.0841452 1.89722361 -10.1875 -0.5 C-6.73119925 -1.2900116 -3.32321618 -1.29164067 0 0 Z " fill="#311E1A" transform="translate(333,308)"/>
<path d="M0 0 C2 0.3125 2 0.3125 4 1 C5.4783226 3.95664519 5.06032783 6.74229737 5 10 C5.80824219 9.3503125 6.61648438 8.700625 7.44921875 8.03125 C8.52815144 7.18686789 9.60760627 6.34315267 10.6875 5.5 C11.21794922 5.07074219 11.74839844 4.64148438 12.29492188 4.19921875 C14.88676956 2.19570459 16.59627799 1.03922805 19.89453125 0.71875 C20.58933594 0.8115625 21.28414063 0.904375 22 1 C22.33 2.65 22.66 4.3 23 6 C19.37 8.64 15.74 11.28 12 14 C14.2120783 18.42415659 16.41737034 20.15531034 20.22265625 23.12109375 C22.38645524 25.4085384 22.83245107 26.87749713 23 30 C21 32 21 32 17.75 32.0625 C11.73987738 30.35963192 9.345982 26.01897299 6 21 C5.81824219 21.63808594 5.63648438 22.27617187 5.44921875 22.93359375 C5.19785156 23.75988281 4.94648438 24.58617187 4.6875 25.4375 C4.44386719 26.26121094 4.20023438 27.08492187 3.94921875 27.93359375 C3.63597656 28.61550781 3.32273438 29.29742187 3 30 C2.01 30.33 1.02 30.66 0 31 C-0.99 30.34 -1.98 29.68 -3 29 C-4.43570977 20.0769866 -2.49568064 9.87582744 -1 1 C-0.67 0.67 -0.34 0.34 0 0 Z " fill="#301D19" transform="translate(250,137)"/>
<path d="M0 0 C0 0.66 0 1.32 0 2 C0.93972656 2.14695313 0.93972656 2.14695313 1.8984375 2.296875 C2.71570313 2.44640625 3.53296875 2.5959375 4.375 2.75 C5.18710937 2.88921875 5.99921875 3.0284375 6.8359375 3.171875 C9 4 9 4 10.2890625 5.80078125 C11.53896329 9.66723259 11.17430633 13.14058387 10 17 C8.19151022 19.55662724 6.8189391 20.35118656 4 22 C0.41678591 22.42998569 -2.56224525 22.05777069 -6 21 C-6.8353125 22.4540625 -6.8353125 22.4540625 -7.6875 23.9375 C-10 27 -10 27 -12.6875 27.9375 C-13.450625 27.958125 -14.21375 27.97875 -15 28 C-16 27 -16 27 -16.25390625 24.3359375 C-15.76529833 17.91638111 -7.7924236 0 0 0 Z M0 9 C-0.99 10.485 -0.99 10.485 -2 12 C-1.34 12.66 -0.68 13.32 0 14 C2.09291157 13.91428339 2.09291157 13.91428339 4 13 C4.33 12.01 4.66 11.02 5 10 C3.35 9.67 1.7 9.34 0 9 Z " fill="#2F1D19" transform="translate(303,159)"/>
<path d="M0 0 C2.6875 2.4375 2.6875 2.4375 3.875 5.875 C3.6875 9.4375 3.6875 9.4375 1.25 12.375 C0.404375 13.055625 -0.44125 13.73625 -1.3125 14.4375 C-0.6525 14.7675 0.0075 15.0975 0.6875 15.4375 C0.6875 17.0875 0.6875 18.7375 0.6875 20.4375 C-2.56724612 22.74294517 -5.46839369 22.67803958 -9.33984375 22.01953125 C-12.95362958 20.95328553 -14.29066459 19.59661783 -16.3125 16.4375 C-17.08939946 11.4623554 -16.97186057 7.0529334 -15.0625 2.375 C-10.6721938 -2.48569615 -5.84001167 -2.75472248 0 0 Z M-7.3125 5.4375 C-3.3125 6.4375 -3.3125 6.4375 -3.3125 6.4375 Z " fill="#311E1A" transform="translate(259.3125,339.5625)"/>
<path d="M0 0 C2.93165553 1.95443702 4.84407652 3.78874883 6.9375 6.625 C9.40854205 9.47044237 11.39437053 10.09859263 15 11 C14.67 14.3 14.34 17.6 14 21 C1.34104046 21.62427746 1.34104046 21.62427746 -3.625 19.3125 C-8.3203144 14.74074651 -10.8782249 11.81940569 -11 5 C-8.32570509 -0.85797933 -6.13667401 -1.56425024 0 0 Z M-4 4 C-0.82460444 7.42578949 -0.82460444 7.42578949 3 10 C1.84826645 7.53199953 0.95216435 5.95216435 -1 4 C-1.99 4 -2.98 4 -4 4 Z " fill="#E8CF97" transform="translate(244,199)"/>
<path d="M0 0 C4.11140375 0.75515579 5.47963822 2.33392278 8.0625 5.5625 C10.26685694 9.55133637 10.40323632 13.04774376 10.0625 17.5625 C8.0625 19.5625 8.0625 19.5625 5.625 19.6875 C3.0625 18.5625 3.0625 18.5625 2.0703125 16.70703125 C1.31503027 14.67496238 0.64726953 12.64960424 0.0625 10.5625 C-0.13085938 11.17738281 -0.32421875 11.79226563 -0.5234375 12.42578125 C-0.78382813 13.23402344 -1.04421875 14.04226563 -1.3125 14.875 C-1.56773437 15.67550781 -1.82296875 16.47601563 -2.0859375 17.30078125 C-2.9375 19.5625 -2.9375 19.5625 -4.9375 22.5625 C-8.0625 22.75 -8.0625 22.75 -10.9375 22.5625 C-12.73474972 17.0509342 -14.05987485 11.39570117 -13.9375 5.5625 C-13.2775 4.5725 -12.6175 3.5825 -11.9375 2.5625 C-9.4625 3.5525 -9.4625 3.5525 -6.9375 4.5625 C-6.40125 3.9025 -5.865 3.2425 -5.3125 2.5625 C-2.9375 0.5625 -2.9375 0.5625 0 0 Z " fill="#311E1B" transform="translate(278.9375,337.4375)"/>
<path d="M0 0 C1.65 0.33 3.3 0.66 5 1 C5 1.66 5 2.32 5 3 C5.66 2.67 6.32 2.34 7 2 C13.19296117 1.42657767 13.19296117 1.42657767 16.375 3.6875 C18.70486819 7.00308165 19.23795642 9.17673931 18.7109375 13.21484375 C17.33322843 20.41862761 17.33322843 20.41862761 14 23 C11.8125 22.6875 11.8125 22.6875 10 22 C8.71428571 14.57142857 8.71428571 14.57142857 10 11 C6.49352499 13.8689341 3.14718888 16.7317654 0 20 C-2.475 19.01 -2.475 19.01 -5 18 C-4.56699236 11.18012971 -3.09212176 6.08356979 0 0 Z " fill="#2F1D19" transform="translate(199,334)"/>
<path d="M0 0 C2.37109375 2.36328125 2.37109375 2.36328125 4.4375 5.3125 C5.13746094 6.27800781 5.83742187 7.24351562 6.55859375 8.23828125 C8 11 8 11 7.72265625 13.35546875 C7.48417969 13.89816406 7.24570313 14.44085938 7 15 C2.25 16.125 2.25 16.125 0 15 C-0.20625 15.61875 -0.4125 16.2375 -0.625 16.875 C-2 19 -2 19 -4.8125 20.4375 C-8 21 -8 21 -10.8125 19.75 C-13 18 -13 18 -14 16 C-14.43281664 11.76339098 -14.44858706 8.08605289 -12.8125 4.125 C-8.86832626 -0.4992037 -5.88505579 -1.70784911 0 0 Z M-6 7 C-7.29633621 8.06645115 -7.29633621 8.06645115 -7.0625 10.5625 C-7.041875 11.366875 -7.02125 12.17125 -7 13 C-6.34 12.67 -5.68 12.34 -5 12 C-5 10.35 -5 8.7 -5 7 C-5.33 7 -5.66 7 -6 7 Z " fill="#301E1A" transform="translate(201,159)"/>
<path d="M0 0 C2.5 2.125 2.5 2.125 4 5 C4.11978367 11.22875091 1.16390644 15.85135521 -2 21 C-3.65 21 -5.3 21 -7 21 C-7.33 19.35 -7.66 17.7 -8 16 C-8.928125 15.896875 -9.85625 15.79375 -10.8125 15.6875 C-14.08902627 14.98079826 -15.15538519 14.71837973 -17 12 C-18.13631005 8.91572985 -18.1730716 7.48460048 -17.0625 4.375 C-12.60343182 -0.75968457 -6.44561076 -1.98326485 0 0 Z M-8.6875 7.5 C-9.120625 7.995 -9.55375 8.49 -10 9 C-7.52733235 8.65555119 -7.52733235 8.65555119 -5 8 C-4.67 7.34 -4.34 6.68 -4 6 C-7.00259517 5.66781808 -7.00259517 5.66781808 -8.6875 7.5 Z " fill="#301F1B" transform="translate(330,172)"/>
<path d="M0 0 C0.66 0.66 1.32 1.32 2 2 C1.625 4.625 1.625 4.625 1 7 C-0.32 7.33 -1.64 7.66 -3 8 C-2.44570312 8.18175781 -1.89140625 8.36351562 -1.3203125 8.55078125 C-0.59585938 8.80214844 0.12859375 9.05351562 0.875 9.3125 C1.95394531 9.67794922 1.95394531 9.67794922 3.0546875 10.05078125 C5 11 5 11 7 14 C7.5 16.375 7.5 16.375 7 19 C3.63762377 22.69041294 2.25744621 23.87425538 -2.75 24.375 C-6 24 -6 24 -8 23 C-8 21.02 -8 19.04 -8 17 C-7.34 16.67 -6.68 16.34 -6 16 C-6.78375 15.731875 -7.5675 15.46375 -8.375 15.1875 C-11 14 -11 14 -13 11 C-12.92465547 6.85605079 -12.62637764 4.718492 -9.875 1.5625 C-6.31059124 -0.37467868 -4.00176839 -0.45303038 0 0 Z " fill="#301E1B" transform="translate(219,149)"/>
<path d="M0 0 C2.6875 0.875 2.6875 0.875 5 2 C4.67 3.98 4.34 5.96 4 8 C3.34 8 2.68 8 2 8 C2 7.34 2 6.68 2 6 C1.46632813 6.45890625 0.93265625 6.9178125 0.3828125 7.390625 C-11.64694763 17.29748629 -24.74469874 19.46275238 -40 18 C-48.82783108 16.3892481 -56.60980514 13.07170236 -64 8 C-64.99 8 -65.98 8 -67 8 C-66.67 6.68 -66.34 5.36 -66 4 C-65.34 4 -64.68 4 -64 4 C-63.38125 4.721875 -62.7625 5.44375 -62.125 6.1875 C-56.81359412 11.76924689 -47.34903308 14.78468123 -39.76806641 15.08984375 C-37.1153037 15.13435149 -34.46559205 15.13636228 -31.8125 15.125 C-30.89791016 15.12886719 -29.98332031 15.13273437 -29.04101562 15.13671875 C-27.73100586 15.13478516 -27.73100586 15.13478516 -26.39453125 15.1328125 C-25.59893799 15.13168457 -24.80334473 15.13055664 -23.98364258 15.12939453 C-21.92444479 15.1239077 -21.92444479 15.1239077 -20 14 C-22.475 13.505 -22.475 13.505 -25 13 C-24.67 12.01 -24.34 11.02 -24 10 C-25.32 9.67 -26.64 9.34 -28 9 C-26.35 9 -24.7 9 -23 9 C-23.495 7.02 -23.495 7.02 -24 5 C-18.33333333 5 -12.66666667 5 -7 5 C-6.01 4.67 -5.02 4.34 -4 4 C-3.67 3.34 -3.34 2.68 -3 2 C-2.01 1.34 -1.02 0.68 0 0 Z " fill="#B2A68F" transform="translate(283,255)"/>
<path d="M0 0 C3.18628626 0.96375325 4.8637235 3.04624075 6.8984375 5.57421875 C7.2284375 5.90421875 7.5584375 6.23421875 7.8984375 6.57421875 C8.19157556 9.35903031 8.30819129 10.97037105 6.7109375 13.32421875 C4.48027202 14.86260873 2.5620344 15.21427322 -0.1015625 15.57421875 C0.5584375 16.23421875 1.2184375 16.89421875 1.8984375 17.57421875 C1.5234375 19.69921875 1.5234375 19.69921875 0.8984375 21.57421875 C-2.50463775 22.67521368 -3.89498859 22.65522813 -7.2890625 21.32421875 C-10.1015625 19.57421875 -10.1015625 19.57421875 -12.1015625 16.57421875 C-12.89593964 12.632886 -12.8402895 9.06525229 -11.0390625 5.4296875 C-7.93888336 1.29330718 -5.22996448 -0.45085901 0 0 Z " fill="#2F1E19" transform="translate(287.1015625,149.42578125)"/>
<path d="M0 0 C1.9375 0.1875 1.9375 0.1875 4 1 C4.268125 1.66 4.53625 2.32 4.8125 3 C5.4003125 3.99 5.4003125 3.99 6 5 C9.56206661 5.81870185 9.56206661 5.81870185 13 6 C13.625 8.375 13.625 8.375 14 11 C13.34 11.66 12.68 12.32 12 13 C11.01 13 10.02 13 9 13 C9.66 14.65 10.32 16.3 11 18 C12.134375 17.814375 13.26875 17.62875 14.4375 17.4375 C16.2009375 17.2209375 16.2009375 17.2209375 18 17 C19 18 19 18 19.3125 20.375 C19 23 19 23 17.4375 24.8125 C14.00964949 26.48247845 11.76939636 26.52903809 8 26 C3.98489942 22.89742228 2.15553064 19.5163499 0 15 C-0.66 14.67 -1.32 14.34 -2 14 C-2.125 9.25 -2.125 9.25 -1 7 C-1 5.989375 -1 4.97875 -1 3.9375 C-1 1 -1 1 0 0 Z " fill="#311E1A" transform="translate(291,326)"/>
<path d="M0 0 C2.0625 1.1875 2.0625 1.1875 3 3 C2.8125 5.625 2.8125 5.625 2 8 C1.01 8.495 1.01 8.495 0 9 C-0.66 8.67 -1.32 8.34 -2 8 C-2 7.34 -2 6.68 -2 6 C-4.01432266 6.50256112 -4.01432266 6.50256112 -6 8 C-7.29920746 11.54588501 -7.29920746 11.54588501 -8 15 C-4.7 15.33 -1.4 15.66 2 16 C2.33 17.32 2.66 18.64 3 20 C-1.19409682 22.39662675 -4.1541913 23.70668044 -9 23 C-12.3125 21.5625 -12.3125 21.5625 -15 19 C-16.37081756 15.24294447 -16.61330925 11.76538187 -15.29296875 7.96484375 C-11.42101645 0.6991484 -7.8342276 -0.74611691 0 0 Z " fill="#2E1D19" transform="translate(236,338)"/>
<path d="M0 0 C0.84498047 0.34998047 0.84498047 0.34998047 1.70703125 0.70703125 C1.25299236 5.52682869 -0.76343046 7.752843 -4.04296875 11.20703125 C-4.9040625 12.12484375 -5.76515625 13.04265625 -6.65234375 13.98828125 C-7.52375 14.88546875 -8.39515625 15.78265625 -9.29296875 16.70703125 C-10.16824219 17.62871094 -11.04351562 18.55039063 -11.9453125 19.5 C-14.48316382 21.88583361 -15.8745696 22.41402561 -19.29296875 22.70703125 C-19.95296875 21.05703125 -20.61296875 19.40703125 -21.29296875 17.70703125 C-5.65775556 -0.72288189 -5.65775556 -0.72288189 0 0 Z " fill="#2F1D19" transform="translate(348.29296875,177.29296875)"/>
<path d="M0 0 C2.65196771 1.08617826 4.62713135 2.34930876 7 4 C6.67 5.65 6.34 7.3 6 9 C-0.6 8.34 -7.2 7.68 -14 7 C-14.33 5.68 -14.66 4.36 -15 3 C-10.37812236 -0.69750211 -5.66452557 -0.83560548 0 0 Z " fill="#EF9F39" transform="translate(234,229)"/>
<path d="M0 0 C1.051875 -0.01417969 2.10375 -0.02835938 3.1875 -0.04296875 C6 0.1875 6 0.1875 9 2.1875 C9.1875 4.8125 9.1875 4.8125 9 7.1875 C8.14277344 7.17589844 7.28554688 7.16429687 6.40234375 7.15234375 C0.49139448 7.1056959 -5.18156704 7.10500084 -11 8.1875 C-11.6875 6.375 -11.6875 6.375 -12 4.1875 C-8.87914544 -0.02565366 -4.90658149 0.03006484 0 0 Z " fill="#E7A24A" transform="translate(270,229.8125)"/>
<path d="M0 0 C3 0.25 3 0.25 5 2.25 C5.30078125 4.30859375 5.30078125 4.30859375 5.3125 6.6875 C5.32925781 7.46996094 5.34601563 8.25242188 5.36328125 9.05859375 C4.9163787 11.75442528 4.16134354 12.62384629 2 14.25 C-0.5625 14.5625 -0.5625 14.5625 -3 14.25 C-3.66 13.59 -4.32 12.93 -5 12.25 C-5 10.93 -5 9.61 -5 8.25 C-5.66 8.25 -6.32 8.25 -7 8.25 C-4.60594796 0.383829 -4.60594796 0.383829 0 0 Z M1 3.25 C0.01 3.745 0.01 3.745 -1 4.25 C-1 4.91 -1 5.57 -1 6.25 C-0.01 5.92 0.98 5.59 2 5.25 C1.67 4.59 1.34 3.93 1 3.25 Z " fill="#34231D" transform="translate(230,239.75)"/>
<path d="M0 0 C0.74636719 0.10570312 1.49273437 0.21140625 2.26171875 0.3203125 C1.85934932 6.48997713 0.03783055 12.34271058 -3.73828125 17.3203125 C-6.34765625 18.171875 -6.34765625 18.171875 -8.73828125 18.3203125 C-9.73828125 17.3203125 -9.73828125 17.3203125 -10 14.625 C-9.69250756 10.74233422 -8.62944034 8.71620889 -6.55078125 5.4453125 C-5.95910156 4.47851562 -5.36742187 3.51171875 -4.7578125 2.515625 C-2.73828125 0.3203125 -2.73828125 0.3203125 0 0 Z " fill="#2E1E1A" transform="translate(193.73828125,330.6796875)"/>
<path d="M0 0 C3.0625 0.3125 3.0625 0.3125 4.9375 1.4375 C6.62541147 4.25068579 6.51401041 6.08742565 6.0625 9.3125 C4.0625 12.1875 4.0625 12.1875 2.0625 14.3125 C-0.875 13.9375 -0.875 13.9375 -3.9375 13.3125 C-5.11423198 10.95903604 -5.10373866 9.4318967 -5.125 6.8125 C-5.13917969 6.0184375 -5.15335937 5.224375 -5.16796875 4.40625 C-4.77633888 0.84839221 -3.40089081 0.36179689 0 0 Z M0.0625 3.3125 C-0.2675 3.9725 -0.5975 4.6325 -0.9375 5.3125 C-0.2775 5.3125 0.3825 5.3125 1.0625 5.3125 C0.7325 4.6525 0.4025 3.9925 0.0625 3.3125 Z " fill="#2C1813" transform="translate(269.9375,239.6875)"/>
<path d="M0 0 C0.804375 0.495 1.60875 0.99 2.4375 1.5 C4.64896185 3.08419653 4.64896185 3.08419653 6 3 C6 2.67 6 2.34 6 2 C7.65 2 9.3 2 11 2 C10.34 3.65 9.68 5.3 9 7 C13.10223585 8.01540112 13.10223585 8.01540112 17 7 C16 10 16 10 13.0625 11.625 C12.051875 12.07875 11.04125 12.5325 10 13 C9.01 13.495 9.01 13.495 8 14 C6.32345271 13.72057545 4.65391846 13.39171753 3 13 C3 12.34 3 11.68 3 11 C2.34 11 1.68 11 1 11 C0.1102009 7.69503191 -0.54753044 4.39352169 -1 1 C-0.67 0.67 -0.34 0.34 0 0 Z " fill="#E3C591" transform="translate(239,203)"/>
<path d="M0 0 C1.32 0 2.64 0 4 0 C6.01167675 5.78357065 6.22084624 10.90218999 6 17 C4.35 17.33 2.7 17.66 1 18 C-1.47599533 14.286007 -1.23739325 12.29282091 -1.1875 7.875 C-1.18105469 6.61429688 -1.17460937 5.35359375 -1.16796875 4.0546875 C-1 1 -1 1 0 0 Z " fill="#2D1D19" transform="translate(228,150)"/>
<path d="M0 0 C0.66 0 1.32 0 2 0 C2 0.66 2 1.32 2 2 C2.66 2 3.32 2 4 2 C3.566875 3.2065625 3.566875 3.2065625 3.125 4.4375 C2.9390692 9.7365277 5.66515355 13.02994471 9 17 C9.99 17.66 10.98 18.32 12 19 C12 19.99 12 20.98 12 22 C9.29267998 21.92037294 7.52431998 21.46129431 5.47265625 19.65625 C1.75191654 15.49053633 -0.70542198 11.05850154 -3 6 C-3.66200062 4.66434383 -4.32744021 3.33037046 -5 2 C-3.35 2 -1.7 2 0 2 C0 1.34 0 0.68 0 0 Z " fill="#2B1E1B" transform="translate(171,232)"/>
<path d="M0 0 C0.66 0 1.32 0 2 0 C2 0.66 2 1.32 2 2 C3.32 2 4.64 2 6 2 C4.45878121 9.86928181 -0.9881209 16.92330209 -7 22 C-7.99 22 -8.98 22 -10 22 C-9.52517565 17.72658086 -6.96922587 15.89680572 -4 13 C-1.53047225 9.47210321 -1.83790387 6.21449936 -2 2 C-1.34 2 -0.68 2 0 2 C0 1.34 0 0.68 0 0 Z " fill="#2E1F1E" transform="translate(325,232)"/>
<path d="M0 0 C-2.56547539 3.13558104 -5.14098338 3.9446586 -9 5 C-12.5078125 5.23046875 -12.5078125 5.23046875 -16.125 5.1875 C-17.92324219 5.17783203 -17.92324219 5.17783203 -19.7578125 5.16796875 C-24.81043816 4.90620622 -24.81043816 4.90620622 -27 4 C-27.33 3.01 -27.66 2.02 -28 1 C-26.84242188 1.02320313 -25.68484375 1.04640625 -24.4921875 1.0703125 C-22.95313149 1.08908148 -21.41406845 1.10728046 -19.875 1.125 C-19.11445313 1.14175781 -18.35390625 1.15851563 -17.5703125 1.17578125 C-11.4204101 1.22879765 -5.87897894 -1.72911145 0 0 Z " fill="#E09E4E" transform="translate(266,396)"/>
<path d="M0 0 C4.21878192 -0.19622241 7.17010894 0.19769832 11 2 C11 2.99 11 3.98 11 5 C12.65 5 14.3 5 16 5 C16.33 5.66 16.66 6.32 17 7 C13.24600202 8.2039337 9.66782588 8.09877617 5.75 8.0625 C4.48671875 8.05347656 3.2234375 8.04445313 1.921875 8.03515625 C0.95765625 8.02355469 -0.0065625 8.01195312 -1 8 C-0.67 5.36 -0.34 2.72 0 0 Z " fill="#EFE5CD" transform="translate(248,263)"/>
<path d="M0 0 C1.50463867 1.36865234 1.50463867 1.36865234 3 3 C2.92578125 5.1015625 2.92578125 5.1015625 2.3125 7.625 C1.19100704 12.80058554 0.46450494 17.93076105 -0.125 23.1875 C-0.21225342 23.95465332 -0.29950684 24.72180664 -0.3894043 25.51220703 C-0.59590987 27.34113804 -0.79839287 29.17052254 -1 31 C-1.33 31 -1.66 31 -2 31 C-2.33 29.02 -2.66 27.04 -3 25 C-3.33 25 -3.66 25 -4 25 C-4.24795864 19.22721294 -3.33663941 14.16645104 -2 8.5625 C-1.80921875 7.73556641 -1.6184375 6.90863281 -1.421875 6.05664062 C-0.95471563 4.03617634 -0.47830626 2.01785453 0 0 Z " fill="#DFA55D" transform="translate(109,262)"/>
<path d="M0 0 C1.3293457 0.00483398 1.3293457 0.00483398 2.68554688 0.00976562 C4.05356445 0.02233398 4.05356445 0.02233398 5.44921875 0.03515625 C6.38056641 0.03966797 7.31191406 0.04417969 8.27148438 0.04882812 C10.55996248 0.06056391 12.84830683 0.07698262 15.13671875 0.09765625 C12.32041431 2.91396069 9.3046459 2.80274961 5.51171875 3.22265625 C4.82464844 3.30902344 4.13757813 3.39539063 3.4296875 3.484375 C-1.36211121 4.05076021 -6.03932854 4.17353865 -10.86328125 4.09765625 C-10.53328125 3.10765625 -10.20328125 2.11765625 -9.86328125 1.09765625 C-6.51236354 0.34402573 -3.43218313 -0.02214312 0 0 Z " fill="#E79C41" transform="translate(183.86328125,120.90234375)"/>
<path d="M0 0 C0 0.33 0 0.66 0 1 C-1.98 1 -3.96 1 -6 1 C-6 1.66 -6 2.32 -6 3 C-4.68 3.33 -3.36 3.66 -2 4 C-3.98 4.66 -5.96 5.32 -8 6 C-8.66 9.63 -9.32 13.26 -10 17 C-10.33 17 -10.66 17 -11 17 C-11.14285714 8.42857143 -11.14285714 8.42857143 -10 5 C-12.64 5.33 -15.28 5.66 -18 6 C-18 5.34 -18 4.68 -18 4 C-12.23759526 0.15839684 -6.70842135 -0.23538321 0 0 Z " fill="#F2CE93" transform="translate(274,236)"/>
<path d="M0 0 C0.99 0.33 1.98 0.66 3 1 C1.83984375 2.96484375 1.83984375 2.96484375 0 5 C-2.55859375 5.50390625 -2.55859375 5.50390625 -5.4375 5.5625 C-9.52014618 5.57035321 -9.52014618 5.57035321 -12.92578125 7.546875 C-15.95242617 9.66723641 -18.14391771 9.08416905 -21.75 8.6875 C-23.50570313 8.50767578 -23.50570313 8.50767578 -25.296875 8.32421875 C-26.18890625 8.21722656 -27.0809375 8.11023438 -28 8 C-28 7.67 -28 7.34 -28 7 C-27.20335937 6.96261719 -26.40671875 6.92523438 -25.5859375 6.88671875 C-19.52092729 6.5104225 -15.43169396 5.77619914 -10 3 C-6.9817379 2.74972951 -4.02081164 2.8187513 -1 3 C-0.67 2.01 -0.34 1.02 0 0 Z " fill="#F9DCAB" transform="translate(313,278)"/>
<path d="M0 0 C1.9375 1.4375 1.9375 1.4375 3 3 C3 3.66 3 4.32 3 5 C1.845 4.814375 0.69 4.62875 -0.5 4.4375 C-4.86389648 3.8764276 -8.66733065 4.30367814 -13 5 C-12.06788763 2.66971908 -11.30996602 1.24108468 -9.3125 -0.3125 C-5.92838082 -1.31858949 -3.40333226 -0.80442399 0 0 Z " fill="#E3A655" transform="translate(255,258)"/>
<path d="M0 0 C0.33 0 0.66 0 1 0 C1 1.65 1 3.3 1 5 C2.65 5 4.3 5 6 5 C5.67 3.68 5.34 2.36 5 1 C5.99 0.67 6.98 0.34 8 0 C9.15837626 4.05431692 8.83691257 6.21812119 7 10 C6.34 10 5.68 10 5 10 C5 9.34 5 8.68 5 8 C3.35 8 1.7 8 0 8 C0 8.66 0 9.32 0 10 C-0.99 10.33 -1.98 10.66 -3 11 C-2.67 8.69 -2.34 6.38 -2 4 C-1.34 4 -0.68 4 0 4 C0 2.68 0 1.36 0 0 Z " fill="#F0E0BF" transform="translate(183,250)"/>
<path d="M0 0 C0 1.32 0 2.64 0 4 C1.98 3.34 3.96 2.68 6 2 C6.33 2.99 6.66 3.98 7 5 C5.3125 6.5625 5.3125 6.5625 3 8 C0.25 7.6875 0.25 7.6875 -2 7 C-2 6.01 -2 5.02 -2 4 C-3.32 4.33 -4.64 4.66 -6 5 C-6.33 3.68 -6.66 2.36 -7 1 C-3.375 -1.125 -3.375 -1.125 0 0 Z " fill="#EEDCB7" transform="translate(201,242)"/>
<path d="M0 0 C0 0.33 0 0.66 0 1 C-5.94 1.495 -5.94 1.495 -12 2 C-12 3.32 -12 4.64 -12 6 C-11.01257813 5.98839844 -10.02515625 5.97679687 -9.0078125 5.96484375 C-7.72648438 5.95582031 -6.44515625 5.94679687 -5.125 5.9375 C-3.84882813 5.92589844 -2.57265625 5.91429687 -1.2578125 5.90234375 C2 6 2 6 4 7 C4.66 5.68 5.32 4.36 6 3 C7.125 6.75 7.125 6.75 6 9 C-0.6 8.34 -7.2 7.68 -14 7 C-14.33 5.68 -14.66 4.36 -15 3 C-10.27805833 -0.77755334 -5.74071928 -0.30096975 0 0 Z " fill="#E3A559" transform="translate(234,229)"/>
<path d="M0 0 C1.41655793 -0.0272415 2.83327045 -0.04650467 4.25 -0.0625 C5.43335938 -0.07990234 5.43335938 -0.07990234 6.640625 -0.09765625 C9 0 9 0 11.234375 0.56640625 C11.81703125 0.70949219 12.3996875 0.85257812 13 1 C13.33 0.67 13.66 0.34 14 0 C19.98235897 -0.41257648 23.65196824 0.32598412 29 3 C29 3.33 29 3.66 29 4 C21.40031274 3.11336982 21.40031274 3.11336982 19 2.43359375 C16.71131751 1.93741454 15.05596753 2.13502672 12.75 2.5 C8.27330259 3.08649933 4.44631065 2.72757811 0 2 C0 1.34 0 0.68 0 0 Z " fill="#F8DAAB" transform="translate(235,283)"/>
<path d="M0 0 C2.62901288 1.52206009 4.84365964 2.84365964 7 5 C6.625 7.125 6.625 7.125 6 9 C4.68 9.33 3.36 9.66 2 10 C-1.07692308 5.69230769 -1.07692308 5.69230769 -0.6875 2.1875 C-0.460625 1.465625 -0.23375 0.74375 0 0 Z " fill="#3C271A" transform="translate(239,203)"/>
<path d="M0 0 C2 0 4 0 6 0 C6 1.65 6 3.3 6 5 C6.66 5.33 7.32 5.66 8 6 C8 6.99 8 7.98 8 9 C8.99 9.33 9.98 9.66 11 10 C9.35 10 7.7 10 6 10 C6 9.34 6 8.68 6 8 C5.01 7.67 4.02 7.34 3 7 C3 6.34 3 5.68 3 5 C1.68 4.34 0.36 3.68 -1 3 C-0.67 2.01 -0.34 1.02 0 0 Z " fill="#F7E0B7" transform="translate(178,268)"/>
<path d="M0 0 C0.33 0 0.66 0 1 0 C1 11.25 1 11.25 0.5625 15.1328125 C0.47226562 15.93847656 0.38203125 16.74414062 0.2890625 17.57421875 C0.19367188 18.41597656 0.09828125 19.25773437 0 20.125 C-0.09539062 20.97449219 -0.19078125 21.82398438 -0.2890625 22.69921875 C-0.52505925 24.79958978 -0.76240268 26.89980942 -1 29 C-1.33 29 -1.66 29 -2 29 C-2.02698189 27.37509046 -2.04638757 25.75005367 -2.0625 24.125 C-2.07410156 23.22007812 -2.08570313 22.31515625 -2.09765625 21.3828125 C-2 19 -2 19 -1 17 C-1.66 17 -2.32 17 -3 17 C-2.36934845 11.2190275 -1.34844868 5.6556294 0 0 Z " fill="#E0A560" transform="translate(390,223)"/>
<path d="M0 0 C5.4 -0.36 5.4 -0.36 7.875 1.125 C9.55468045 3.92446741 9.45742277 5.79804064 9 9 C7 11.375 7 11.375 5 13 C4.9729957 11.54176788 4.95360213 10.08339325 4.9375 8.625 C4.92589844 7.81289062 4.91429687 7.00078125 4.90234375 6.1640625 C5 4 5 4 6 2 C3.69 2 1.38 2 -1 2 C-0.67 1.34 -0.34 0.68 0 0 Z " fill="#3F2E27" transform="translate(267,240)"/>
<path d="M0 0 C-1.78673205 1.5058745 -3.57953508 3.0045485 -5.375 4.5 C-6.87160156 5.75296875 -6.87160156 5.75296875 -8.3984375 7.03125 C-11 9 -11 9 -13 9 C-11.64844718 4.57673622 -9.80109562 2.59587018 -6 0 C-3 -1 -3 -1 0 0 Z " fill="#E2A251" transform="translate(134,178)"/>
<path d="M0 0 C3.3125 -0.375 3.3125 -0.375 6 0 C4 2 4 2 1 3 C0.59136719 3.83917969 0.18273437 4.67835938 -0.23828125 5.54296875 C-1.11033203 6.75919922 -1.11033203 6.75919922 -2 8 C-5.35546875 8.48828125 -5.35546875 8.48828125 -9.1875 8.3125 C-10.45980469 8.26738281 -11.73210937 8.22226562 -13.04296875 8.17578125 C-14.01878906 8.11777344 -14.99460937 8.05976563 -16 8 C-16 7.67 -16 7.34 -16 7 C-14.89591797 6.99613281 -14.89591797 6.99613281 -13.76953125 6.9921875 C-8.16915689 6.99447769 -8.16915689 6.99447769 -3.3671875 4.59765625 C-2.97789062 4.04980469 -2.58859375 3.50195312 -2.1875 2.9375 C-1.465625 1.968125 -0.74375 0.99875 0 0 Z " fill="#E3A75A" transform="translate(318,276)"/>
<path d="M0 0 C0 0.66 0 1.32 0 2 C-2.31 1.67 -4.62 1.34 -7 1 C-7 1.66 -7 2.32 -7 3 C-7.94875 2.938125 -8.8975 2.87625 -9.875 2.8125 C-11.421875 2.9053125 -11.421875 2.9053125 -13 3 C-13.99 4.485 -13.99 4.485 -15 6 C-15 5.34 -15 4.68 -15 4 C-16.65 4.33 -18.3 4.66 -20 5 C-15.54107717 -0.05344587 -6.29333742 -3.14666871 0 0 Z " fill="#E3A253" transform="translate(181,273)"/>
<path d="M0 0 C1.32 0.33 2.64 0.66 4 1 C4.33 2.98 4.66 4.96 5 7 C4.34 7 3.68 7 3 7 C2.67 6.01 2.34 5.02 2 4 C1.87625 4.556875 1.7525 5.11375 1.625 5.6875 C0.94023145 8.22114364 0.00866237 10.57921032 -1 13 C-1.33 13 -1.66 13 -2 13 C-2.19294408 8.17639811 -1.75747614 4.50353262 0 0 Z " fill="#2A1A17" transform="translate(250,137)"/>
<path d="M0 0 C6.6 0.33 13.2 0.66 20 1 C20 1.33 20 1.66 20 2 C15.71 2 11.42 2 7 2 C7 2.66 7 3.32 7 4 C3.7 3.67 0.4 3.34 -3 3 C-2.01 2.67 -1.02 2.34 0 2 C0 1.34 0 0.68 0 0 Z " fill="#DE9E53" transform="translate(175,375)"/>
<path d="M0 0 C3.0390625 -0.29296875 3.0390625 -0.29296875 6.625 -0.1875 C7.81351562 -0.16042969 9.00203125 -0.13335937 10.2265625 -0.10546875 C11.14179688 -0.07066406 12.05703125 -0.03585937 13 0 C13.33 0.66 13.66 1.32 14 2 C10.99686252 3.50156874 8.20932478 3.09281204 4.875 3.0625 C3.59367187 3.05347656 2.31234375 3.04445313 0.9921875 3.03515625 C-0.48894531 3.01775391 -0.48894531 3.01775391 -2 3 C-1.34 2.01 -0.68 1.02 0 0 Z " fill="#ED9939" transform="translate(257,298)"/>
<path d="M0 0 C3.32516883 2.89611479 4.33578635 4.68261124 5 9 C5.99 10.485 5.99 10.485 7 12 C4.0625 11.625 4.0625 11.625 1 11 C-0.20272819 8.59454362 -0.10071472 7.05003047 -0.0625 4.375 C-0.05347656 3.55773437 -0.04445313 2.74046875 -0.03515625 1.8984375 C-0.02355469 1.27195313 -0.01195312 0.64546875 0 0 Z " fill="#362722" transform="translate(265,242)"/>
<path d="M0 0 C1.77049689 -0.05410687 3.54146849 -0.09284119 5.3125 -0.125 C6.29863281 -0.14820313 7.28476563 -0.17140625 8.30078125 -0.1953125 C11 0 11 0 14 2 C14 3.65 14 5.3 14 7 C10.7 6.34 7.4 5.68 4 5 C5.32 4.34 6.64 3.68 8 3 C8.33 2.34 8.66 1.68 9 1 C6.03 1 3.06 1 0 1 C0 0.67 0 0.34 0 0 Z " fill="#E8A144" transform="translate(225,230)"/>
<path d="M0 0 C0.33 0.66 0.66 1.32 1 2 C1.66 2.33 2.32 2.66 3 3 C2.34 3.66 1.68 4.32 1 5 C0.59952556 7.32275177 0.2602896 9.65739357 0 12 C1.65 11.67 3.3 11.34 5 11 C5 12.32 5 13.64 5 15 C4.01 15.33 3.02 15.66 2 16 C1.01 15.34 0.02 14.68 -1 14 C-1.328125 11.25 -1.328125 11.25 -1.25 8 C-1.23453125 6.9275 -1.2190625 5.855 -1.203125 4.75 C-1 2 -1 2 0 0 Z " fill="#281A18" transform="translate(248,152)"/>
<path d="M0 0 C0.66 0.33 1.32 0.66 2 1 C0.38050958 2.50594681 -1.24575974 4.00460668 -2.875 5.5 C-3.77992188 6.3353125 -4.68484375 7.170625 -5.6171875 8.03125 C-8 10 -8 10 -10 10 C-10.66 11.65 -11.32 13.3 -12 15 C-12.99 15 -13.98 15 -15 15 C-13.40526038 10.53472907 -9.93096666 8.14492157 -6.375 5.25 C-5.76398438 4.74339844 -5.15296875 4.23679688 -4.5234375 3.71484375 C-3.02070947 2.4703971 -1.51102533 1.23435872 0 0 Z " fill="#F1EBDB" transform="translate(204,224)"/>
<path d="M0 0 C1.66611905 -0.042721 3.33382885 -0.04063832 5 0 C5.33 0.33 5.66 0.66 6 1 C7.84891946 1.23363881 9.70488031 1.41303635 11.5625 1.5625 C12.57441406 1.64628906 13.58632812 1.73007812 14.62890625 1.81640625 C15.80259766 1.90728516 15.80259766 1.90728516 17 2 C17 2.66 17 3.32 17 4 C15.083412 4.02712153 13.1667127 4.04645097 11.25 4.0625 C9.64898437 4.07990234 9.64898437 4.07990234 8.015625 4.09765625 C3.31202572 3.94533762 3.31202572 3.94533762 1 3 C0.67 2.01 0.34 1.02 0 0 Z " fill="#E99B40" transform="translate(238,397)"/>
<path d="M0 0 C-0.33 2.31 -0.66 4.62 -1 7 C-2.32 6.67 -3.64 6.34 -5 6 C-5 5.34 -5 4.68 -5 4 C-5.99 3.67 -6.98 3.34 -8 3 C-7.67 2.01 -7.34 1.02 -7 0 C-4.05610218 -1.17755913 -3.10046087 -1.03348696 0 0 Z M-6 1 C-2 2 -2 2 -2 2 Z M-5 7 C-4.34 7 -3.68 7 -3 7 C-3 7.66 -3 8.32 -3 9 C-3.99 8.67 -4.98 8.34 -6 8 C-5.67 7.67 -5.34 7.34 -5 7 Z " fill="#301C18" transform="translate(258,344)"/>
<path d="M0 0 C0.99 0.495 0.99 0.495 2 1 C2 1.99 2 2.98 2 4 C8.93 4.495 8.93 4.495 16 5 C16 5.33 16 5.66 16 6 C14.35 6.33 12.7 6.66 11 7 C11.99 7.66 12.98 8.32 14 9 C2.63636364 7.63636364 2.63636364 7.63636364 0 5 C-0.04063832 3.33382885 -0.042721 1.66611905 0 0 Z " fill="#F1D6AE" transform="translate(218,231)"/>
<path d="M0 0 C0.33 0 0.66 0 1 0 C1.08710289 3.10398978 1.14042309 6.20766548 1.1875 9.3125 C1.21263672 10.19357422 1.23777344 11.07464844 1.26367188 11.98242188 C1.27333984 12.82998047 1.28300781 13.67753906 1.29296875 14.55078125 C1.3086792 15.33106689 1.32438965 16.11135254 1.34057617 16.9152832 C0.91847304 19.49903853 -0.01489942 20.36292167 -2 22 C-2.02689216 20.52093108 -2.04634621 19.04172517 -2.0625 17.5625 C-2.07410156 16.73878906 -2.08570312 15.91507812 -2.09765625 15.06640625 C-2 13 -2 13 -1 12 C-0.76572222 9.98405418 -0.58663876 7.961526 -0.4375 5.9375 C-0.35371094 4.83277344 -0.26992187 3.72804687 -0.18359375 2.58984375 C-0.12300781 1.73519531 -0.06242187 0.88054687 0 0 Z " fill="#E59F4B" transform="translate(112,244)"/>
<path d="M0 0 C0.66 0 1.32 0 2 0 C2 0.66 2 1.32 2 2 C2.66 2 3.32 2 4 2 C3.67 3.32 3.34 4.64 3 6 C0.6875 6.6875 0.6875 6.6875 -2 7 C-3.8125 5.6875 -3.8125 5.6875 -5 4 C-5 3.34 -5 2.68 -5 2 C-3.35 2 -1.7 2 0 2 C0 1.34 0 0.68 0 0 Z " fill="#392A29" transform="translate(171,232)"/>
<path d="M0 0 C0.66 0.33 1.32 0.66 2 1 C1.67 1.66 1.34 2.32 1 3 C1.99 3.33 2.98 3.66 4 4 C3.34 4 2.68 4 2 4 C2 4.66 2 5.32 2 6 C2.99 5.67 3.98 5.34 5 5 C5 5.66 5 6.32 5 7 C3.02 7 1.04 7 -1 7 C-1.33 7.66 -1.66 8.32 -2 9 C-2.66 8.67 -3.32 8.34 -4 8 C-2.25 2.25 -2.25 2.25 0 0 Z " fill="#413029" transform="translate(227,240)"/>
<path d="M0 0 C0.66 0.66 1.32 1.32 2 2 C1.04287109 2.09087891 1.04287109 2.09087891 0.06640625 2.18359375 C-1.17302734 2.30927734 -1.17302734 2.30927734 -2.4375 2.4375 C-3.67306641 2.55931641 -3.67306641 2.55931641 -4.93359375 2.68359375 C-6.98662025 2.78930815 -6.98662025 2.78930815 -8 4 C-9.66617115 4.04063832 -11.33388095 4.042721 -13 4 C-13.33 3.01 -13.66 2.02 -14 1 C-9.28580561 0.23033561 -4.77871948 -0.28110115 0 0 Z " fill="#E3A44F" transform="translate(209,282)"/>
<path d="M0 0 C6.64615385 2.46153846 6.64615385 2.46153846 8.4375 5.1875 C8.623125 5.785625 8.80875 6.38375 9 7 C5.39703406 7.41176754 4.21597933 7.1535853 1.1875 5 C0.465625 4.34 -0.25625 3.68 -1 3 C-0.67 2.01 -0.34 1.02 0 0 Z " fill="#EFD9A2" transform="translate(240,198)"/>
<path d="M0 0 C0.66 0 1.32 0 2 0 C2.33 0.66 2.66 1.32 3 2 C6.91765889 2.81309902 10.17907588 3.37553268 14 2 C14 2.99 14 3.98 14 5 C9.38 5.33 4.76 5.66 0 6 C0 4.02 0 2.04 0 0 Z " fill="#F8F5E4" transform="translate(262,255)"/>
<path d="M0 0 C5.58110327 1.76734937 8.69901348 2.91097912 12 8 C9.75 8.25 9.75 8.25 7 8 C4.6875 6.125 4.6875 6.125 3 4 C3 3.34 3 2.68 3 2 C2.01 2 1.02 2 0 2 C0 1.34 0 0.68 0 0 Z " fill="#F2ECDC" transform="translate(284,216)"/>
<path d="M0 0 C4.95 1.98 4.95 1.98 10 4 C6 6 6 6 3.640625 5.5390625 C2.85171875 5.23742187 2.0628125 4.93578125 1.25 4.625 C0.05117188 4.18027344 0.05117188 4.18027344 -1.171875 3.7265625 C-1.77515625 3.48679687 -2.3784375 3.24703125 -3 3 C-2.01 2.01 -1.02 1.02 0 0 Z " fill="#DDA55D" transform="translate(261,101)"/>
<path d="M0 0 C0 0.33 0 0.66 0 1 C-1.98 1.66 -3.96 2.32 -6 3 C-6.66 6.63 -7.32 10.26 -8 14 C-8.33 14 -8.66 14 -9 14 C-9 9.38 -9 4.76 -9 0 C-5.93109813 -1.53445094 -3.29905734 -0.54984289 0 0 Z " fill="#CCBEA6" transform="translate(272,239)"/>
<path d="M0 0 C-3.96 1.65 -7.92 3.3 -12 5 C-12 4.34 -12 3.68 -12 3 C-12.66 2.67 -13.32 2.34 -14 2 C-9.33056589 -1.11295607 -5.39134908 -1.34783727 0 0 Z " fill="#E5A65E" transform="translate(242,104)"/>
<path d="M0 0 C0.33 0 0.66 0 1 0 C1 1.98 1 3.96 1 6 C1.99 6 2.98 6 4 6 C4 6.66 4 7.32 4 8 C2.68 8 1.36 8 0 8 C0 8.66 0 9.32 0 10 C-0.99 10.33 -1.98 10.66 -3 11 C-2.67 8.69 -2.34 6.38 -2 4 C-1.34 4 -0.68 4 0 4 C0 2.68 0 1.36 0 0 Z " fill="#E2CEB0" transform="translate(183,250)"/>
<path d="M0 0 C1.9375 0.3125 1.9375 0.3125 4 1 C4.33 1.99 4.66 2.98 5 4 C4.67 4.66 4.34 5.32 4 6 C2.35 5.67 0.7 5.34 -1 5 C-0.67 3.35 -0.34 1.7 0 0 Z " fill="#2E2220" transform="translate(226,141)"/>
<path d="M0 0 C5.94 0.66 11.88 1.32 18 2 C18 2.33 18 2.66 18 3 C17.08476562 2.98839844 16.16953125 2.97679688 15.2265625 2.96484375 C14.03804688 2.95582031 12.84953125 2.94679688 11.625 2.9375 C9.84996094 2.92009766 9.84996094 2.92009766 8.0390625 2.90234375 C5.08078479 2.78533407 5.08078479 2.78533407 3 4 C2.01 3.67 1.02 3.34 0 3 C0 2.01 0 1.02 0 0 Z " fill="#DD9E4B" transform="translate(291,118)"/>
<path d="M0 0 C0.89203125 0.01804688 1.7840625 0.03609375 2.703125 0.0546875 C3.71632812 0.08949219 3.71632812 0.08949219 4.75 0.125 C4.75 0.455 4.75 0.785 4.75 1.125 C-1.19 1.62 -1.19 1.62 -7.25 2.125 C-7.25 3.775 -7.25 5.425 -7.25 7.125 C-8.24 6.795 -9.23 6.465 -10.25 6.125 C-10 4.25 -10 4.25 -9.25 2.125 C-6.13870062 0.08851313 -3.66596268 -0.0964727 0 0 Z " fill="#E1AF6B" transform="translate(229.25,228.875)"/>
<path d="M0 0 C2.0625 0.4375 2.0625 0.4375 4 1 C3.625 3.4375 3.625 3.4375 3 6 C2.01 6.495 2.01 6.495 1 7 C0.34 6.67 -0.32 6.34 -1 6 C-1.042721 4.33388095 -1.04063832 2.66617115 -1 1 C-0.67 0.67 -0.34 0.34 0 0 Z " fill="#2F211F" transform="translate(291,326)"/>
<path d="M0 0 C2.0625 0.4375 2.0625 0.4375 4 1 C3.67 2.98 3.34 4.96 3 7 C2.34 7 1.68 7 1 7 C1 6.34 1 5.68 1 5 C0.01 5 -0.98 5 -2 5 C-1.125 1.125 -1.125 1.125 0 0 Z " fill="#B3A58E" transform="translate(284,256)"/>
<path d="M0 0 C1.32 0 2.64 0 4 0 C3.3125 2.4375 3.3125 2.4375 2 5 C-0.625 5.8125 -0.625 5.8125 -3 6 C-2.67 4.68 -2.34 3.36 -2 2 C-1.34 2 -0.68 2 0 2 C0 1.34 0 0.68 0 0 Z " fill="#EDDEBD" transform="translate(183,260)"/>
<path d="M0 0 C1.875 0.25 1.875 0.25 4 1 C5.3125 2.9375 5.3125 2.9375 6 5 C5.67 5.66 5.34 6.32 5 7 C3.0625 6.3125 3.0625 6.3125 1 5 C0.25 2.375 0.25 2.375 0 0 Z " fill="#EDA550" transform="translate(156,365)"/>
<path d="M0 0 C1 3 1 3 0.3125 5.125 C-1 7 -1 7 -3.125 7.75 C-4.053125 7.87375 -4.053125 7.87375 -5 8 C-4.45773019 4.20411134 -2.79872437 2.52788007 0 0 Z " fill="#362924" transform="translate(320,246)"/>
<path d="M0 0 C0.99 0 1.98 0 3 0 C3.33 0.66 3.66 1.32 4 2 C4.99 2.33 5.98 2.66 7 3 C7 3.99 7 4.98 7 6 C2.25 5.25 2.25 5.25 0 3 C0 2.01 0 1.02 0 0 Z " fill="#EBD9B4" transform="translate(230,218)"/>
<path d="M0 0 C1.65 0.99 3.3 1.98 5 3 C4.01 3.495 4.01 3.495 3 4 C3 4.66 3 5.32 3 6 C2.01 6.33 1.02 6.66 0 7 C-0.38133299 5.0085944 -0.71325582 3.00720923 -1 1 C-0.67 0.67 -0.34 0.34 0 0 Z " fill="#4B362A" transform="translate(239,203)"/>
<path d="M0 0 C0.99 0 1.98 0 3 0 C6 4.22222222 6 4.22222222 6 7 C4.68 7 3.36 7 2 7 C1.34 4.69 0.68 2.38 0 0 Z " fill="#E89C4A" transform="translate(136,327)"/>
<path d="M0 0 C2.97 0.495 2.97 0.495 6 1 C6 2.65 6 4.3 6 6 C3.37812506 4.95125002 2.20628639 4.35068687 0.75 1.875 C0.5025 1.25625 0.255 0.6375 0 0 Z " fill="#2A1C19" transform="translate(193,321)"/>
<path d="M0 0 C1.32 0.33 2.64 0.66 4 1 C4 1.66 4 2.32 4 3 C3.34 3 2.68 3 2 3 C2 4.65 2 6.3 2 8 C0.68 7.67 -0.64 7.34 -2 7 C-1.34 4.69 -0.68 2.38 0 0 Z " fill="#F2EBD7" transform="translate(179,259)"/>
<path d="M0 0 C0.33 0 0.66 0 1 0 C1 2.64 1 5.28 1 8 C-0.65 8.33 -2.3 8.66 -4 9 C-2.80100302 5.9168649 -1.52299523 2.93720508 0 0 Z " fill="#F4EBD7" transform="translate(188,239)"/>
<path d="M0 0 C1.98 0.66 3.96 1.32 6 2 C5.67 2.99 5.34 3.98 5 5 C2.525 4.01 2.525 4.01 0 3 C-0.33 4.32 -0.66 5.64 -1 7 C-1.625 5.1875 -1.625 5.1875 -2 3 C-1.34 2.01 -0.68 1.02 0 0 Z " fill="#281715" transform="translate(267,340)"/>
<path d="M0 0 C7.75 0.75 7.75 0.75 10 3 C6.33333333 3 2.66666667 3 -1 3 C-0.67 2.01 -0.34 1.02 0 0 Z " fill="#E4A152" transform="translate(325,272)"/>
<path d="M0 0 C2 0 4 0 6 0 C6 0.99 6 1.98 6 3 C5.01 3 4.02 3 3 3 C3 3.66 3 4.32 3 5 C1.68 4.34 0.36 3.68 -1 3 C-0.67 2.01 -0.34 1.02 0 0 Z " fill="#EFD7B3" transform="translate(178,268)"/>
<path d="M0 0 C2.5 1.3125 2.5 1.3125 5 3 C5 3.99 5 4.98 5 6 C3.35 5.67 1.7 5.34 0 5 C-0.5625 3.0625 -0.5625 3.0625 -1 1 C-0.67 0.67 -0.34 0.34 0 0 Z " fill="#3C2D27" transform="translate(178,248)"/>
<path d="M0 0 C2.97 0 5.94 0 9 0 C9 0.33 9 0.66 9 1 C10.65 1.33 12.3 1.66 14 2 C14 2.33 14 2.66 14 3 C4.58997722 3.3690205 4.58997722 3.3690205 0 1 C0 0.67 0 0.34 0 0 Z " fill="#E09F58" transform="translate(179,121)"/>
<path d="M0 0 C1.485 0.99 1.485 0.99 3 2 C2.67 3.65 2.34 5.3 2 7 C1.01 7.33 0.02 7.66 -1 8 C-1.08226668 4.95613276 -0.97608217 2.92824652 0 0 Z " fill="#DEA24B" transform="translate(338,276)"/>
<path d="M0 0 C-4.625 4 -4.625 4 -8 4 C-8 3.01 -8 2.02 -8 1 C-3.375 -1.125 -3.375 -1.125 0 0 Z " fill="#EDAB48" transform="translate(134,178)"/>
<path d="M0 0 C-2.22825644 2.22825644 -3.65761628 2.69239369 -6.625 3.625 C-7.44226563 3.88539063 -8.25953125 4.14578125 -9.1015625 4.4140625 C-9.72804687 4.60742188 -10.35453125 4.80078125 -11 5 C-10 2 -10 2 -8.3125 0.8125 C-5.45030907 -0.19313465 -3.01172092 -0.13689641 0 0 Z " fill="#241916" transform="translate(256,338)"/>
<path d="M0 0 C0.33 1.32 0.66 2.64 1 4 C-2 5 -2 5 -4.1875 4.0625 C-4.785625 3.711875 -5.38375 3.36125 -6 3 C-5.34 3 -4.68 3 -4 3 C-4 2.34 -4 1.68 -4 1 C-2.68 0.67 -1.36 0.34 0 0 Z " fill="#E8D8B2" transform="translate(215,226)"/>
<path d="M0 0 C1.5 1.3125 1.5 1.3125 3 3 C3 3.99 3 4.98 3 6 C0.03 5.505 0.03 5.505 -3 5 C-2.01 3.35 -1.02 1.7 0 0 Z " fill="#F2D89F" transform="translate(250,206)"/>
<path d="M0 0 C-0.33 0.99 -0.66 1.98 -1 3 C-3.31 3 -5.62 3 -8 3 C-7.67 2.01 -7.34 1.02 -7 0 C-4.05610218 -1.17755913 -3.10046087 -1.03348696 0 0 Z M-6 1 C-2 2 -2 2 -2 2 Z " fill="#25140D" transform="translate(258,344)"/>
<path d="M0 0 C0.99 0.66 1.98 1.32 3 2 C2.625 4.4375 2.625 4.4375 2 7 C1.01 7.495 1.01 7.495 0 8 C-0.66 7.34 -1.32 6.68 -2 6 C-1.34 6 -0.68 6 0 6 C0 4.02 0 2.04 0 0 Z " fill="#241917" transform="translate(236,339)"/>
<path d="M0 0 C0.66 0.33 1.32 0.66 2 1 C1.67 1.66 1.34 2.32 1 3 C2.32 3.33 3.64 3.66 5 4 C2.36 4.33 -0.28 4.66 -3 5 C-1.125 1.125 -1.125 1.125 0 0 Z " fill="#DDA961" transform="translate(245,258)"/>
<path d="M0 0 C1.98 0.99 3.96 1.98 6 3 C5.01 4.485 5.01 4.485 4 6 C1.525 5.01 1.525 5.01 -1 4 C-0.67 2.68 -0.34 1.36 0 0 Z " fill="#D9A15E" transform="translate(227,389)"/>
<path d="M0 0 C-0.33 0.99 -0.66 1.98 -1 3 C-2.98 3.33 -4.96 3.66 -7 4 C-6.67 3.01 -6.34 2.02 -6 1 C-3.90006779 0.25486277 -2.22568901 0 0 0 Z " fill="#E4A048" transform="translate(283,385)"/>
<path d="M0 0 C5.625 -0.25 5.625 -0.25 9 2 C9 2.66 9 3.32 9 4 C5.85262818 3.30058404 2.97411124 2.23921302 0 1 C0 0.67 0 0.34 0 0 Z " fill="#E2A25A" transform="translate(184,292)"/>
<path d="M0 0 C0.33 0.66 0.66 1.32 1 2 C2.32 2 3.64 2 5 2 C5 2.66 5 3.32 5 4 C2.36 3.67 -0.28 3.34 -3 3 C-3 2.34 -3 1.68 -3 1 C-2.01 0.67 -1.02 0.34 0 0 Z " fill="#E7D4AE" transform="translate(277,224)"/>
<path d="M0 0 C0 0.99 0 1.98 0 3 C-1.97746603 3.73080266 -3.98072489 4.39421747 -6 5 C-6.66 4.67 -7.32 4.34 -8 4 C-8 3.34 -8 2.68 -8 2 C-6.865625 1.855625 -5.73125 1.71125 -4.5625 1.5625 C-1.19222799 1.38828522 -1.19222799 1.38828522 0 0 Z " fill="#897141" transform="translate(255,210)"/>
<path d="M0 0 C0.66 0 1.32 0 2 0 C2 1.65 2 3.3 2 5 C0.68 5.33 -0.64 5.66 -2 6 C-1.125 1.125 -1.125 1.125 0 0 Z " fill="#E7D7B2" transform="translate(304,244)"/>
<path d="M0 0 C0 0.66 0 1.32 0 2 C-2.31 2.33 -4.62 2.66 -7 3 C-7 2.34 -7 1.68 -7 1 C-4.53721199 -0.231394 -2.7204945 -0.07159196 0 0 Z " fill="#EBD4AB" transform="translate(263,239)"/>
<path d="M0 0 C0.33 0 0.66 0 1 0 C1 1.65 1 3.3 1 5 C0.34 5 -0.32 5 -1 5 C-1 6.65 -1 8.3 -1 10 C-1.66 9.34 -2.32 8.68 -3 8 C-2.64700993 4.55834679 -1.95418308 2.93127462 0 0 Z " fill="#E0A25D" transform="translate(394,214)"/>
<path d="M0 0 C0.33 0.66 0.66 1.32 1 2 C1.66 2.33 2.32 2.66 3 3 C3 3.66 3 4.32 3 5 C0.69 4.67 -1.62 4.34 -4 4 C-4 3.34 -4 2.68 -4 2 C-2.68 2 -1.36 2 0 2 C0 1.34 0 0.68 0 0 Z " fill="#E5BC79" transform="translate(246,212)"/>
<path d="M0 0 C1.32 0 2.64 0 4 0 C3.38722388 2.96175123 2.74627478 4.38058783 1 7 C0.67 4.69 0.34 2.38 0 0 Z " fill="#F1E09D" transform="translate(233,204)"/>
</svg>
